HIERARCHY
ROOT Hips
{
	OFFSET -49.260769 -43.699543 87.056984
	CHANNELS 6 Xposition Yposition Zposition Zrotation Yrotation Xrotation
	JOINT Spine
	{
		OFFSET 0.000000 2.080109 8.814247
		CHANNELS 6 Xposition Yposition Zposition Zrotation Yrotation Xrotation
		JOINT Spine1
		{
			OFFSET 0.000000 0.000000 8.844139
			CHANNELS 6 Xposition Yposition Zposition Zrotation Yrotation Xrotation
			JOINT Spine2
			{
				OFFSET 0.000000 0.000000 11.682266
				CHANNELS 6 Xposition Yposition Zposition Zrotation Yrotation Xrotation
				JOINT Spine3
				{
					OFFSET 0.000000 0.000004 11.746696
					CHANNELS 6 Xposition Yposition Zposition Zrotation Yrotation Xrotation
					JOINT Neck
					{
						OFFSET 0.000000 0.000000 17.658264
						CHANNELS 6 Xposition Yposition Zposition Zrotation Yrotation Xrotation
						JOINT Neck1
						{
							OFFSET 0.000000 0.000000 5.101517
							CHANNELS 6 Xposition Yposition Zposition Zrotation Yrotation Xrotation
							JOINT Head
							{
								OFFSET 0.000000 0.000000 5.101517
								CHANNELS 6 Xposition Yposition Zposition Zrotation Yrotation Xrotation
								JOINT HeadEnd
								{
									OFFSET 0.000000 0.000000 11.655090
									CHANNELS 6 Xposition Yposition Zposition Zrotation Yrotation Xrotation
									End Site
									{
										OFFSET 0.000000 0.000000 0.100006
									}
								}
							}
						}
					}
					JOINT RightShoulder
					{
						OFFSET -2.625389 0.000000 11.175217
						CHANNELS 6 Xposition Yposition Zposition Zrotation Yrotation Xrotation
						JOINT RightArm
						{
							OFFSET 0.000000 0.000000 10.434723
							CHANNELS 6 Xposition Yposition Zposition Zrotation Yrotation Xrotation
							JOINT RightForeArm
							{
								OFFSET 0.000000 0.000004 29.628418
								CHANNELS 6 Xposition Yposition Zposition Zrotation Yrotation Xrotation
								JOINT RightHand
								{
									OFFSET 0.000000 0.000000 22.857605
									CHANNELS 6 Xposition Yposition Zposition Zrotation Yrotation Xrotation
									JOINT RightHandThumb1
									{
										OFFSET -2.867321 -2.944290 3.959564
										CHANNELS 6 Xposition Yposition Zposition Zrotation Yrotation Xrotation
										JOINT RightHandThumb2
										{
											OFFSET 0.000000 0.000000 3.350403
											CHANNELS 6 Xposition Yposition Zposition Zrotation Yrotation Xrotation
											JOINT RightHandThumb3
											{
												OFFSET 0.000000 0.000000 3.756516
												CHANNELS 6 Xposition Yposition Zposition Zrotation Yrotation Xrotation
												JOINT RightHandThumb4
												{
													OFFSET 0.000000 0.000000 3.147339
													CHANNELS 6 Xposition Yposition Zposition Zrotation Yrotation Xrotation
													End Site
													{
														OFFSET 0.000000 0.000000 0.100006
													}
												}
											}
										}
									}
									JOINT RightHandIndex1
									{
										OFFSET -0.086754 -2.345280 10.030899
										CHANNELS 6 Xposition Yposition Zposition Zrotation Yrotation Xrotation
										JOINT RightHandIndex2
										{
											OFFSET 0.000000 0.000000 4.061096
											CHANNELS 6 Xposition Yposition Zposition Zrotation Yrotation Xrotation
											JOINT RightHandIndex3
											{
												OFFSET 0.000000 0.000000 3.248871
												CHANNELS 6 Xposition Yposition Zposition Zrotation Yrotation Xrotation
												JOINT RightHandIndex4
												{
													OFFSET 0.000000 0.000000 2.639709
													CHANNELS 6 Xposition Yposition Zposition Zrotation Yrotation Xrotation
													End Site
													{
														OFFSET 0.000000 0.000000 0.100006
													}
												}
											}
										}
									}
									JOINT RightHandMiddle1
									{
										OFFSET 0.104103 -0.006767 9.502945
										CHANNELS 6 Xposition Yposition Zposition Zrotation Yrotation Xrotation
										JOINT RightHandMiddle2
										{
											OFFSET 0.000000 0.000000 4.568726
											CHANNELS 6 Xposition Yposition Zposition Zrotation Yrotation Xrotation
											JOINT RightHandMiddle3
											{
												OFFSET 0.000000 0.000000 3.654984
												CHANNELS 6 Xposition Yposition Zposition Zrotation Yrotation Xrotation
												JOINT RightHandMiddle4
												{
													OFFSET 0.000000 0.000000 2.741241
													CHANNELS 6 Xposition Yposition Zposition Zrotation Yrotation Xrotation
													End Site
													{
														OFFSET 0.000000 0.000000 0.100006
													}
												}
											}
										}
									}
									JOINT RightHandRing1
									{
										OFFSET 0.086754 2.267441 8.921707
										CHANNELS 6 Xposition Yposition Zposition Zrotation Yrotation Xrotation
										JOINT RightHandRing2
										{
											OFFSET 0.000000 0.000000 4.061096
											CHANNELS 6 Xposition Yposition Zposition Zrotation Yrotation Xrotation
											JOINT RightHandRing3
											{
												OFFSET 0.000000 0.000000 3.654984
												CHANNELS 6 Xposition Yposition Zposition Zrotation Yrotation Xrotation
												JOINT RightHandRing4
												{
													OFFSET 0.000000 0.000000 2.741241
													CHANNELS 6 Xposition Yposition Zposition Zrotation Yrotation Xrotation
													End Site
													{
														OFFSET 0.000000 0.000000 0.100006
													}
												}
											}
										}
									}
									JOINT RightHandPinky1
									{
										OFFSET -0.173504 4.467197 7.976990
										CHANNELS 6 Xposition Yposition Zposition Zrotation Yrotation Xrotation
										JOINT RightHandPinky2
										{
											OFFSET 0.000000 0.000000 3.350403
											CHANNELS 6 Xposition Yposition Zposition Zrotation Yrotation Xrotation
											JOINT RightHandPinky3
											{
												OFFSET 0.000000 0.000000 2.842758
												CHANNELS 6 Xposition Yposition Zposition Zrotation Yrotation Xrotation
												JOINT RightHandPinky4
												{
													OFFSET 0.000000 0.000000 2.639709
													CHANNELS 6 Xposition Yposition Zposition Zrotation Yrotation Xrotation
													End Site
													{
														OFFSET 0.000000 0.000000 0.100006
													}
												}
											}
										}
									}
									JOINT RightForeArmEnd
									{
										OFFSET 0.000000 0.000000 0.000000
										CHANNELS 6 Xposition Yposition Zposition Zrotation Yrotation Xrotation
										End Site
										{
											OFFSET 0.000000 0.000000 0.100006
										}
									}
								}
								JOINT RightArmEnd
								{
									OFFSET 0.000000 0.000000 0.000000
									CHANNELS 6 Xposition Yposition Zposition Zrotation Yrotation Xrotation
									End Site
									{
										OFFSET 0.000000 0.000000 0.100006
									}
								}
							}
						}
					}
					JOINT LeftShoulder
					{
						OFFSET 2.625389 0.000000 11.175217
						CHANNELS 6 Xposition Yposition Zposition Zrotation Yrotation Xrotation
						JOINT LeftArm
						{
							OFFSET 0.000000 0.000000 10.813629
							CHANNELS 6 Xposition Yposition Zposition Zrotation Yrotation Xrotation
							JOINT LeftForeArm
							{
								OFFSET 0.000000 0.000004 28.724777
								CHANNELS 6 Xposition Yposition Zposition Zrotation Yrotation Xrotation
								JOINT LeftHand
								{
									OFFSET 0.644382 0.328873 25.716171
									CHANNELS 6 Xposition Yposition Zposition Zrotation Yrotation Xrotation
									JOINT LeftHandThumb1
									{
										OFFSET 2.867325 -2.944290 3.959564
										CHANNELS 6 Xposition Yposition Zposition Zrotation Yrotation Xrotation
										JOINT LeftHandThumb2
										{
											OFFSET 0.000000 0.000000 3.350403
											CHANNELS 6 Xposition Yposition Zposition Zrotation Yrotation Xrotation
											JOINT LeftHandThumb3
											{
												OFFSET 0.000000 0.000000 3.756516
												CHANNELS 6 Xposition Yposition Zposition Zrotation Yrotation Xrotation
												JOINT LeftHandThumb4
												{
													OFFSET 0.000000 0.000000 3.100006
													CHANNELS 6 Xposition Yposition Zposition Zrotation Yrotation Xrotation
													End Site
													{
														OFFSET 0.000000 0.000000 0.100006
													}
												}
											}
										}
									}
									JOINT LeftHandIndex1
									{
										OFFSET 0.086754 -2.345280 10.030899
										CHANNELS 6 Xposition Yposition Zposition Zrotation Yrotation Xrotation
										JOINT LeftHandIndex2
										{
											OFFSET 0.000000 0.000000 4.061096
											CHANNELS 6 Xposition Yposition Zposition Zrotation Yrotation Xrotation
											JOINT LeftHandIndex3
											{
												OFFSET 0.000000 0.000000 3.248871
												CHANNELS 6 Xposition Yposition Zposition Zrotation Yrotation Xrotation
												JOINT LeftHandIndex4
												{
													OFFSET 0.000000 0.000000 2.639709
													CHANNELS 6 Xposition Yposition Zposition Zrotation Yrotation Xrotation
													End Site
													{
														OFFSET 0.000000 0.000000 0.100006
													}
												}
											}
										}
									}
									JOINT LeftHandMiddle1
									{
										OFFSET -0.104103 -0.006767 9.502945
										CHANNELS 6 Xposition Yposition Zposition Zrotation Yrotation Xrotation
										JOINT LeftHandMiddle2
										{
											OFFSET 0.000000 0.000000 4.568726
											CHANNELS 6 Xposition Yposition Zposition Zrotation Yrotation Xrotation
											JOINT LeftHandMiddle3
											{
												OFFSET 0.000000 0.000000 3.654984
												CHANNELS 6 Xposition Yposition Zposition Zrotation Yrotation Xrotation
												JOINT LeftHandMiddle4
												{
													OFFSET 0.000000 0.000000 2.741241
													CHANNELS 6 Xposition Yposition Zposition Zrotation Yrotation Xrotation
													End Site
													{
														OFFSET 0.000000 0.000000 0.100006
													}
												}
											}
										}
									}
									JOINT LeftHandRing1
									{
										OFFSET -0.086754 2.267441 8.921707
										CHANNELS 6 Xposition Yposition Zposition Zrotation Yrotation Xrotation
										JOINT LeftHandRing2
										{
											OFFSET 0.000000 0.000000 4.061096
											CHANNELS 6 Xposition Yposition Zposition Zrotation Yrotation Xrotation
											JOINT LeftHandRing3
											{
												OFFSET 0.000000 0.000000 3.654984
												CHANNELS 6 Xposition Yposition Zposition Zrotation Yrotation Xrotation
												JOINT LeftHandRing4
												{
													OFFSET 0.000000 0.000000 2.741241
													CHANNELS 6 Xposition Yposition Zposition Zrotation Yrotation Xrotation
													End Site
													{
														OFFSET 0.000000 0.000000 0.100006
													}
												}
											}
										}
									}
									JOINT LeftHandPinky1
									{
										OFFSET 0.173504 4.467197 7.976990
										CHANNELS 6 Xposition Yposition Zposition Zrotation Yrotation Xrotation
										JOINT LeftHandPinky2
										{
											OFFSET 0.000000 0.000000 3.350403
											CHANNELS 6 Xposition Yposition Zposition Zrotation Yrotation Xrotation
											JOINT LeftHandPinky3
											{
												OFFSET 0.000000 0.000000 2.842758
												CHANNELS 6 Xposition Yposition Zposition Zrotation Yrotation Xrotation
												JOINT LeftHandPinky4
												{
													OFFSET 0.000000 0.000000 2.639709
													CHANNELS 6 Xposition Yposition Zposition Zrotation Yrotation Xrotation
													End Site
													{
														OFFSET 0.000000 0.000000 0.100006
													}
												}
											}
										}
									}
									JOINT LeftForeArmEnd
									{
										OFFSET 0.000000 0.000000 0.000000
										CHANNELS 6 Xposition Yposition Zposition Zrotation Yrotation Xrotation
										End Site
										{
											OFFSET 0.000000 0.000000 0.100006
										}
									}
								}
								JOINT LeftArmEnd
								{
									OFFSET 0.000000 0.000000 0.000000
									CHANNELS 6 Xposition Yposition Zposition Zrotation Yrotation Xrotation
									End Site
									{
										OFFSET 0.000000 0.000000 0.100006
									}
								}
							}
						}
					}
				}
			}
		}
	}
	JOINT RightUpLeg
	{
		OFFSET -11.289944 0.000000 0.000000
		CHANNELS 6 Xposition Yposition Zposition Zrotation Yrotation Xrotation
		JOINT RightLeg
		{
			OFFSET 0.000000 -0.000004 -38.200321
			CHANNELS 6 Xposition Yposition Zposition Zrotation Yrotation Xrotation
			JOINT RightFoot
			{
				OFFSET 0.000000 -0.000004 -39.900856
				CHANNELS 6 Xposition Yposition Zposition Zrotation Yrotation Xrotation
				JOINT RightToeBase
				{
					OFFSET 0.000000 -15.261639 0.000002
					CHANNELS 6 Xposition Yposition Zposition Zrotation Yrotation Xrotation
					JOINT RightToeBaseEnd
					{
						OFFSET 0.000000 -7.370712 0.000000
						CHANNELS 6 Xposition Yposition Zposition Zrotation Yrotation Xrotation
						End Site
						{
							OFFSET 0.000000 0.000000 0.100000
						}
					}
				}
				JOINT RightLegEnd
				{
					OFFSET 0.000000 0.000000 0.000000
					CHANNELS 6 Xposition Yposition Zposition Zrotation Yrotation Xrotation
					End Site
					{
						OFFSET 0.000000 0.000000 0.100000
					}
				}
			}
			JOINT RightUpLegEnd
			{
				OFFSET 0.000000 0.000000 0.000000
				CHANNELS 6 Xposition Yposition Zposition Zrotation Yrotation Xrotation
				End Site
				{
					OFFSET 0.000000 0.000000 0.099998
				}
			}
		}
	}
	JOINT LeftUpLeg
	{
		OFFSET 11.315662 0.000000 0.000000
		CHANNELS 6 Xposition Yposition Zposition Zrotation Yrotation Xrotation
		JOINT LeftLeg
		{
			OFFSET 0.000000 -0.000004 -38.200321
			CHANNELS 6 Xposition Yposition Zposition Zrotation Yrotation Xrotation
			JOINT LeftFoot
			{
				OFFSET 0.000000 -0.000004 -39.900856
				CHANNELS 6 Xposition Yposition Zposition Zrotation Yrotation Xrotation
				JOINT LeftToeBase
				{
					OFFSET 0.000000 -15.261639 0.000002
					CHANNELS 6 Xposition Yposition Zposition Zrotation Yrotation Xrotation
					JOINT LeftToeBaseEnd
					{
						OFFSET 0.000000 -7.539993 0.000000
						CHANNELS 6 Xposition Yposition Zposition Zrotation Yrotation Xrotation
						End Site
						{
							OFFSET 0.000000 0.000000 0.100000
						}
					}
				}
				JOINT LeftLegEnd
				{
					OFFSET 0.000000 0.000000 0.000000
					CHANNELS 6 Xposition Yposition Zposition Zrotation Yrotation Xrotation
					End Site
					{
						OFFSET 0.000000 0.000000 0.100000
					}
				}
			}
			JOINT LeftUpLegEnd
			{
				OFFSET 0.000000 0.000000 0.000000
				CHANNELS 6 Xposition Yposition Zposition Zrotation Yrotation Xrotation
				End Site
				{
					OFFSET 0.000000 0.000000 0.099998
				}
			}
		}
	}
}
MOTION
Frames: 2
Frame Time: 0.016667
-35.430298 -46.135025 86.143280 11.636256 7.915951 -16.145444 0.000005 2.080113 8.814242 0.419454 -2.659983 7.788343 -0.000002 0.000004 8.844131 -1.051765 -3.148753 0.844789 0.000003 -0.000006 11.682270 -4.190044 -5.153040 13.838736 0.000004 0.000005 11.746696 -0.425844 0.670903 0.782419 -0.000002 -0.000005 17.658257 3.074176 -4.763540 17.749076 0.000003 0.000001 5.101518 1.898374 3.403152 -3.262773 0.000000 0.000013 5.101536 3.276561 0.861829 -23.122955 0.000007 0.000006 11.655089 -0.000003 -0.000001 -0.000000 -2.625390 -0.000003 11.175220 7.039020 -94.204319 -0.852712 -0.000005 0.000006 10.434716 -14.259395 -47.606664 29.800327 0.000001 0.000011 29.628416 24.546931 -1.643802 102.788521 -0.000017 -0.000008 22.857594 27.807952 17.673511 18.864576 -2.867329 -2.944283 3.959582 31.666987 -16.919898 52.039782 0.000005 0.000002 3.350429 -11.909742 8.109645 -21.599394 -0.000003 0.000002 3.756503 -7.939287 6.118407 -14.796818 -0.000001 0.000004 3.147307 0.000001 -0.000003 -0.000002 -0.086748 -2.345280 10.030902 -11.226022 -13.380083 4.261666 0.000002 -0.000004 4.061090 0.381775 -9.758027 1.384944 0.000001 -0.000003 3.248889 -0.118221 -9.758026 1.384954 0.000001 0.000005 2.639682 0.000000 0.000004 0.000001 0.104105 -0.006759 9.502939 -6.162337 -14.090872 1.966914 -0.000007 -0.000002 4.568698 0.452388 -10.071338 0.533435 0.000010 -0.000003 3.654995 -0.047518 -10.071350 0.533410 -0.000003 0.000000 2.741213 0.000001 0.000002 -0.000000 0.086769 2.267444 8.921697 1.949915 -14.936743 -1.389315 0.000014 -0.000006 4.061088 -0.938269 -10.644774 -0.658746 0.000016 -0.000001 3.655007 0.061357 -10.644766 -0.658668 0.000008 0.000009 2.741223 0.000002 -0.000001 0.000003 -0.173492 4.467206 7.976983 10.758313 -13.827094 -5.001784 -0.000003 -0.000003 3.350397 -1.821749 -10.181951 -2.000670 0.000004 0.000012 2.842782 0.178255 -10.181940 -2.000678 0.000005 -0.000008 2.639724 -0.000002 -0.000002 -0.000003 0.000006 0.000007 -0.000015 0.000000 0.000000 0.000000 -0.000013 -0.000005 0.000002 -0.000002 0.000001 -0.000001 2.625404 -0.000000 11.175219 -7.354632 90.680378 -2.151128 -0.000018 0.000003 10.813633 29.274290 60.880372 37.787444 0.000005 -0.000008 28.724779 -26.183918 2.859247 108.253321 0.644396 0.328886 25.716141 -17.541341 -14.433238 15.541489 2.867315 -2.944286 3.959550 -32.088891 14.722000 55.537255 0.000005 0.000011 3.350388 7.118216 -5.629068 -13.352937 -0.000007 -0.000004 3.756519 4.801578 -4.087762 -9.191237 -0.000010 0.000005 3.100006 0.000001 0.000000 0.000001 0.086754 -2.345262 10.030912 -8.335357 0.672779 -1.711133 -0.000001 0.000015 4.061134 0.498561 0.646374 -0.090839 0.000006 0.000001 3.248910 -0.000780 0.646363 -0.090853 -0.000005 0.000002 2.639709 0.000001 -0.000000 0.000001 -0.104105 -0.006747 9.502932 -3.067787 2.356871 -1.741840 0.000004 -0.000007 4.568763 0.497986 1.745331 -0.091498 0.000005 -0.000009 3.654980 -0.001765 1.745342 -0.091514 -0.000002 0.000013 2.741287 -0.000000 -0.000000 -0.000001 -0.086751 2.267460 8.921699 5.484918 5.448121 0.274706 0.000002 0.000005 4.061099 -0.992082 3.869150 0.236965 -0.000001 -0.000003 3.655021 0.008027 3.868786 0.237068 0.000000 0.000004 2.741273 0.000001 -0.000000 -0.000002 0.173501 4.467215 7.977011 14.410152 6.887870 3.236853 0.000005 -0.000010 3.350423 -1.954333 5.190237 1.011726 0.000005 0.000004 2.842750 0.045851 5.190467 1.011722 -0.000005 -0.000005 2.639710 0.000000 0.000000 -0.000001 -0.000001 0.000013 0.000002 -0.000001 0.000001 -0.000002 0.000004 0.000010 -0.000014 0.000000 0.000001 -0.000001 -11.289947 -0.000001 -0.000009 -2.563021 -6.926274 11.895859 -0.000003 -0.000002 -38.200333 -0.474581 0.118217 13.989249 -0.000002 -0.000006 -39.900856 -9.487013 4.975654 17.805769 -0.000005 -15.261637 -0.000002 -0.957113 0.351053 -29.457534 -0.000000 -7.370712 0.000000 -0.000000 0.000000 -0.000000 0.000000 0.000004 -0.000000 -0.000000 -0.000001 -0.000001 0.000001 0.000001 0.000000 -0.000000 0.000000 0.000000 11.315670 -0.000000 -0.000007 8.943111 -15.857978 22.375155 0.000006 -0.000009 -38.200321 1.322411 -0.333656 14.158447 -0.000008 -0.000013 -39.900860 8.533460 2.671148 5.105458 -0.000005 -15.261645 0.000007 0.665646 -0.872472 -25.888580 0.000002 -7.539984 -0.000001 -0.000002 -0.000001 0.000000 0.000001 -0.000000 0.000001 0.000000 0.000001 0.000003 -0.000003 -0.000005 0.000001 -0.000001 0.000000 -0.000001 
-35.537640 -46.232559 86.124893 11.510820 8.010736 -16.011695 -0.000000 2.080113 8.814240 0.405516 -2.705683 7.736572 -0.000003 0.000001 8.844142 -1.057033 -3.154781 0.872685 -0.000003 -0.000001 11.682276 -4.259428 -5.261403 13.713027 0.000001 0.000004 11.746680 -0.439648 0.647531 0.787757 -0.000004 0.000005 17.658272 3.207835 -4.694148 17.628187 0.000001 -0.000012 5.101540 2.003724 3.407957 -3.312029 0.000004 0.000010 5.101535 3.273836 0.907349 -23.088317 0.000004 0.000001 11.655075 -0.000001 -0.000000 0.000000 -2.625389 -0.000005 11.175207 7.029665 -94.129719 -0.856448 0.000017 0.000004 10.434721 -14.435637 -47.604909 29.851513 0.000013 -0.000006 29.628412 24.512543 -1.639943 102.805173 -0.000002 0.000006 22.857594 27.926121 17.680901 18.896295 -2.867332 -2.944290 3.959581 31.666970 -16.919900 52.039785 0.000004 0.000005 3.350402 -11.909740 8.109640 -21.599387 0.000002 0.000001 3.756500 -7.939295 6.118406 -14.796797 -0.000007 0.000005 3.147307 -0.000001 -0.000001 0.000000 -0.086750 -2.345280 10.030900 -11.427454 -14.271072 4.321906 -0.000006 -0.000009 4.061117 0.365889 -10.384585 1.475809 0.000019 0.000005 3.248891 -0.134121 -10.384579 1.475816 0.000005 0.000006 2.639679 0.000001 -0.000000 -0.000001 0.104103 -0.006766 9.502960 -6.338940 -14.954245 1.963038 -0.000005 0.000001 4.568722 0.447042 -10.683443 0.566479 0.000010 -0.000007 3.654991 -0.052978 -10.683470 0.566495 0.000004 -0.000001 2.741224 -0.000000 -0.000000 0.000002 0.086769 2.267443 8.921691 1.807417 -15.778562 -1.520060 0.000008 0.000006 4.061088 -0.931377 -11.248000 -0.696947 0.000012 0.000000 3.654990 0.068790 -11.247981 -0.696990 -0.000000 -0.000012 2.741225 -0.000004 -0.000001 -0.000000 -0.173515 4.467187 7.976992 10.651209 -14.583263 -5.302208 -0.000012 0.000003 3.350390 -1.801270 -10.742564 -2.113440 0.000018 0.000008 2.842792 0.198733 -10.742565 -2.113443 0.000021 -0.000004 2.639709 -0.000002 0.000001 0.000001 -0.000001 -0.000001 0.000014 0.000000 0.000000 0.000001 0.000007 0.000002 0.000001 0.000001 0.000000 -0.000000 2.625390 0.000006 11.175204 -7.438151 90.653522 -2.179881 0.000019 0.000001 10.813633 29.510710 60.804284 37.993381 -0.000009 -0.000025 28.724754 -26.252980 2.874271 108.152173 0.644389 0.328890 25.716129 -17.995293 -13.788029 15.518420 2.867325 -2.944300 3.959575 -32.088929 14.722007 55.537200 -0.000004 0.000004 3.350398 7.118216 -5.629088 -13.352927 -0.000001 -0.000004 3.756533 4.801586 -4.087737 -9.191229 -0.000012 0.000005 3.100007 0.000001 0.000001 -0.000000 0.086755 -2.345278 10.030904 -8.254527 1.075849 -2.093438 0.000001 0.000012 4.061099 0.497697 0.966723 -0.135894 0.000004 0.000001 3.248896 -0.002198 0.966721 -0.135885 0.000008 0.000002 2.639741 0.000001 -0.000000 -0.000002 -0.104100 -0.006774 9.502954 -2.988997 2.790100 -2.027828 -0.000008 -0.000007 4.568741 0.497329 2.064678 -0.108261 0.000001 0.000004 3.655025 -0.002298 2.064664 -0.108270 0.000005 -0.000007 2.741255 0.000000 -0.000001 0.000001 -0.086752 2.267434 8.921715 5.573796 5.935534 0.170741 0.000005 0.000002 4.061112 -0.990399 4.208071 0.257831 0.000005 0.000006 3.654991 0.009816 4.207785 0.257865 0.000002 -0.000006 2.741271 -0.000000 -0.000000 0.000001 0.173506 4.467189 7.977009 14.511789 7.370058 3.311210 0.000005 0.000005 3.350420 -1.947927 5.530010 1.078295 0.000006 0.000003 2.842767 0.052081 5.529821 1.078335 -0.000004 -0.000011 2.639710 -0.000000 0.000000 -0.000001 0.000002 -0.000010 0.000028 0.000001 -0.000001 0.000002 0.000007 0.000012 -0.000000 0.000002 -0.000001 -0.000001 -11.289948 0.000008 -0.000007 -2.468951 -7.146851 11.793754 0.000003 0.000005 -38.200329 -0.468457 0.116612 13.977232 -0.000010 -0.000006 -39.900848 -9.521020 5.055628 17.761699 0.000003 -15.261645 0.000000 -0.958063 0.344376 -29.460074 -0.000000 -7.370720 -0.000000 0.000000 -0.000001 0.000000 0.000004 -0.000004 0.000000 -0.000000 -0.000001 -0.000000 -0.000004 -0.000000 0.000007 0.000000 -0.000000 0.000001 11.315666 -0.000003 -0.000005 9.026588 -16.050630 22.231448 -0.000001 -0.000006 -38.200314 1.340326 -0.339953 14.229528 -0.000000 -0.000006 -39.900848 8.515077 2.796938 5.039814 -0.000004 -15.261648 0.000004 0.671147 -0.878446 -25.909790 -0.000000 -7.539985 -0.000000 -0.000001 -0.000002 0.000000 0.000001 0.000001 0.000001 -0.000001 0.000001 -0.000001 0.000006 -0.000000 0.000007 0.000000 -0.000000 0.000000 
